<?xml version="1.0" encoding="utf-8"?>
<!-- Generator: Adobe Illustrator 19.0.0, SVG Export Plug-In . SVG Version: 6.00 Build 0)  -->
<svg version="1.1" id="Layer_1" xmlns="http://www.w3.org/2000/svg" xmlns:xlink="http://www.w3.org/1999/xlink" x="0px" y="0px"
	 viewBox="-438 240 82 82" style="enable-background:new -438 240 82 82;" xml:space="preserve">
<style type="text/css">
	.st0{fill:#333333;}
</style>
<title>Instagram</title>
<g id="Layer_2">
	<g id="Icons">
		<path class="st0" d="M-397,322c-22.6,0-41-18.4-41-41s18.4-41,41-41s41,18.4,41,41S-374.4,322-397,322z M-397,242
			c-21.5,0-39,17.5-39,39s17.5,39,39,39s39-17.5,39-39S-375.5,242-397,242z"/>
		<path class="st0" d="M-386,263h-22c-3.9,0-7,3.1-7,7v22c0,3.9,3.1,7,7,7h22c3.9,0,7-3.1,7-7v-22C-379,266.1-382.1,263-386,263z
			 M-384,267.1h0.8v6.1h-6.1v-6.1H-384z M-402.1,277.3c2-2.8,6-3.5,8.8-1.4c2.8,2,3.5,6,1.4,8.8c-2,2.8-6,3.5-8.8,1.4
			c-1.6-1.2-2.6-3.1-2.6-5.1C-403.3,279.7-402.9,278.4-402.1,277.3z M-382.5,292c0,1.9-1.5,3.5-3.4,3.5c0,0-0.1,0-0.1,0h-22
			c-1.9,0-3.5-1.5-3.5-3.4c0,0,0,0,0-0.1v-14.7h5.4c-2,5,0.4,10.8,5.4,12.8c5,2,10.8-0.4,12.8-5.4c1-2.4,1-5,0-7.4h5.4V292z"/>
	</g>
</g>
</svg>
