<?xml version="1.0" encoding="utf-8"?>
<!-- Generator: Adobe Illustrator 25.1.0, SVG Export Plug-In . SVG Version: 6.00 Build 0)  -->
<svg version="1.1" id="Layer_1" xmlns="http://www.w3.org/2000/svg" xmlns:xlink="http://www.w3.org/1999/xlink" x="0px" y="0px"
	 viewBox="0 0 140 33" style="enable-background:new 0 0 140 33;" xml:space="preserve">
<style type="text/css">
	.st0{display:none;fill:#F6B141;}
	.st1{display:none;fill:none;stroke:#F6B141;stroke-width:5;}
	.st2{display:none;}
	.st3{font-family:'Roboto-Bold';}
	.st4{font-size:20.0237px;}
</style>
<path class="st0" d="M9.6,8.8h7.7c5.3,0,9.6,4.3,9.6,9.6v0c0,5.3-4.3,9.6-9.6,9.6H9.6C4.3,28,0,23.7,0,18.4v0
	C0,13.1,4.3,8.8,9.6,8.8z"/>
<path class="st1" d="M21.1,6.5h6.7c3.9,0,7.1,3.2,7.1,7.1l0,0c0,3.9-3.2,7.1-7.1,7.1h-6.7c-3.9,0-7.1-3.2-7.1-7.1l0,0
	C14,9.7,17.2,6.5,21.1,6.5z"/>
<path class="st2" d="M61.3,24.1h11.8V28H55.3v-2.8L66.9,8.5H55.3V4.5h17.6v2.8L61.3,24.1z M75.3,19.1c0-1.7,0.3-3.3,1-4.6
	c0.7-1.4,1.6-2.4,2.9-3.1c1.3-0.7,2.7-1.1,4.4-1.1c2.4,0,4.3,0.7,5.8,2.2c1.5,1.4,2.3,3.4,2.5,5.9l0,1.2c0,2.7-0.7,4.8-2.2,6.4
	c-1.5,1.6-3.5,2.4-6,2.4s-4.5-0.8-6-2.4c-1.5-1.6-2.2-3.8-2.2-6.6L75.3,19.1L75.3,19.1z M80,19.5c0,1.7,0.3,2.9,0.9,3.8
	c0.6,0.9,1.5,1.3,2.7,1.3c1.1,0,2-0.4,2.6-1.3c0.6-0.9,0.9-2.3,0.9-4.2c0-1.6-0.3-2.9-0.9-3.8c-0.6-0.9-1.5-1.3-2.7-1.3
	c-1.1,0-2,0.4-2.6,1.3C80.3,16.2,80,17.6,80,19.5z M100.1,28h-4.7V3.2h4.7V28z M114.6,28c-0.2-0.4-0.4-0.9-0.5-1.6
	c-1.1,1.3-2.6,1.9-4.4,1.9c-1.7,0-3.1-0.5-4.3-1.5c-1.1-1-1.7-2.2-1.7-3.7c0-1.8,0.7-3.3,2-4.3c1.4-1,3.4-1.5,5.9-1.5h2.1v-1
	c0-0.8-0.2-1.4-0.6-1.9c-0.4-0.5-1.1-0.7-1.9-0.7c-0.8,0-1.4,0.2-1.9,0.6c-0.4,0.4-0.7,0.9-0.7,1.5h-4.7c0-1,0.3-1.9,0.9-2.8
	c0.6-0.9,1.5-1.5,2.6-2c1.1-0.5,2.4-0.7,3.8-0.7c2.1,0,3.9,0.5,5.1,1.6c1.3,1.1,1.9,2.6,1.9,4.5V24c0,1.7,0.2,2.9,0.7,3.8V28
	C119.3,28,114.6,28,114.6,28z M110.7,24.8c0.7,0,1.3-0.1,1.9-0.5c0.6-0.3,1-0.7,1.3-1.2v-3h-1.7c-2.3,0-3.6,0.8-3.7,2.4l0,0.3
	c0,0.6,0.2,1.1,0.6,1.4S110,24.8,110.7,24.8z M127,10.6l0.1,2c1.2-1.6,2.9-2.3,5-2.3c1.8,0,3.2,0.5,4.1,1.6c0.9,1.1,1.4,2.7,1.4,4.9
	V28H133V16.9c0-1-0.2-1.7-0.6-2.1c-0.4-0.4-1.1-0.7-2.1-0.7c-1.3,0-2.3,0.6-2.9,1.7V28h-4.7V10.6H127L127,10.6z"/>
<text transform="matrix(1 0 0 1 9.765625e-04 22.3516)" class="st3 st4">ClassySurveyor</text>
</svg>
