<?xml version="1.0" encoding="utf-8"?>
<!-- Generator: Adobe Illustrator 19.0.0, SVG Export Plug-In . SVG Version: 6.00 Build 0)  -->
<svg version="1.1" id="Layer_1" xmlns="http://www.w3.org/2000/svg" xmlns:xlink="http://www.w3.org/1999/xlink" x="0px" y="0px"
	 viewBox="-410 237 60.3 60.3" style="enable-background:new -410 237 60.3 60.3;" xml:space="preserve">
<style type="text/css">
	.st0{fill:#FFFFFF;}
</style>
<path class="st0" d="M-350.8,270.2l-32-32c-0.8-0.8-1.8-1.2-2.8-1.2H-406c-2.2,0-4,1.8-4,4v20.3c0,1.1,0.4,2.1,1.2,2.8l32,32
	c1.6,1.6,4.1,1.6,5.7,0l20.3-20.3C-349.3,274.3-349.3,271.7-350.8,270.2z M-394,258c-2.8,0-5-2.2-5-5s2.2-5,5-5s5,2.2,5,5
	S-391.2,258-394,258z"/>
</svg>
